# Blender 4.4.3
# www.blender.org
mtllib camera-gizmo.mtl
o Cube
v 0.040676 0.045341 -0.002218
v 0.040676 0.049538 0.001978
v 0.044873 0.045341 0.001978
v 0.040676 -0.044043 0.001978
v 0.040676 -0.039846 -0.002218
v 0.044873 -0.039846 0.001978
v 0.044873 0.048030 0.179139
v 0.040676 0.052227 0.179139
v 0.040676 0.048030 0.183335
v 0.044873 -0.039846 0.179139
v 0.040676 -0.039846 0.183335
v 0.040676 -0.044043 0.179139
v -0.040676 0.045341 -0.002218
v -0.044873 0.045341 0.001978
v -0.040676 0.049538 0.001978
v -0.044873 -0.039846 0.001978
v -0.040676 -0.039846 -0.002218
v -0.040676 -0.044043 0.001978
v -0.044873 0.048030 0.179139
v -0.040676 0.048030 0.183335
v -0.040676 0.052227 0.179139
v -0.040676 -0.044043 0.179139
v -0.040676 -0.039846 0.183335
v -0.044873 -0.039846 0.179139
v 0.067038 0.040483 -0.071181
v 0.067038 -0.036047 -0.071181
v -0.067038 0.040483 -0.071181
v -0.067038 -0.036047 -0.071181
v 0.061681 -0.032989 -0.058713
v -0.061681 -0.032989 -0.058713
v 0.061681 0.037425 -0.058713
v -0.061681 0.037425 -0.058713
v 0.030867 0.023672 -0.002218
v 0.027770 0.026405 -0.002218
v 0.027770 -0.021969 -0.002218
v 0.030867 -0.019236 -0.002218
v -0.027770 0.026405 -0.002218
v -0.030867 0.023672 -0.002218
v -0.030867 -0.019236 -0.002218
v -0.027770 -0.021969 -0.002218
v 0.074322 -0.040598 -0.069893
v 0.071225 -0.043330 -0.069893
v 0.072454 -0.041463 -0.069893
v -0.071225 -0.043330 -0.069893
v -0.074322 -0.040598 -0.069893
v -0.072454 -0.041463 -0.069893
v 0.071225 0.047767 -0.069893
v 0.074322 0.045034 -0.069893
v 0.072454 0.045899 -0.069893
v -0.074322 0.045034 -0.069893
v -0.071225 0.047767 -0.069893
v -0.072454 0.045899 -0.069893
vn -0.0000 -1.0000 -0.0000
vn -1.0000 -0.0000 -0.0000
vn -0.0000 -0.0000 1.0000
vn -0.0000 0.9999 -0.0152
vn 1.0000 -0.0000 -0.0000
vn 0.5773 0.5774 -0.5774
vn 0.5774 -0.5774 -0.5774
vn 0.5774 0.5774 0.5773
vn 0.5774 -0.5773 0.5773
vn -0.5773 0.5774 -0.5774
vn -0.5774 -0.5774 -0.5774
vn -0.5774 0.5774 0.5773
vn -0.5774 -0.5773 0.5773
vn -0.7071 -0.7071 -0.0000
vn -0.0000 -0.7071 -0.7071
vn 0.7071 -0.0000 -0.7071
vn -0.7071 -0.0000 0.7071
vn 0.7071 -0.0000 0.7071
vn -0.7071 -0.0000 -0.7071
vn -0.0000 0.7071 0.7071
vn 0.7071 0.7071 -0.0107
vn -0.0000 -0.7071 0.7071
vn -0.7071 0.7071 -0.0107
vn -0.0000 0.7071 -0.7071
vn 0.7071 -0.7071 -0.0000
vn -0.0000 -0.0000 -1.0000
vn -0.0000 -0.9536 0.3010
vn -0.0023 -0.1755 -0.9845
vn -0.8415 -0.0000 0.5403
vn -0.0000 0.9536 0.3010
vn 0.9188 -0.0000 -0.3948
vn 0.1765 -0.0038 -0.9843
vn -0.1765 0.0038 -0.9843
vn 0.0023 0.1755 -0.9845
vn -0.0000 0.9712 -0.2382
vn -0.0000 -0.9712 -0.2382
vn -0.9188 -0.0000 -0.3948
vn -0.5518 -0.6254 0.5517
vn 0.5518 0.6254 0.5517
vn -0.5518 0.6254 0.5517
vn 0.5518 -0.6254 0.5517
vn 0.8415 -0.0000 0.5403
vn -0.0000 -0.2314 -0.9729
vn 0.1414 -0.0931 -0.9856
vn 0.2314 -0.0000 -0.9729
vn 0.0741 0.1600 -0.9843
vn -0.2314 -0.0000 -0.9729
vn -0.0741 -0.1600 -0.9843
vn -0.0000 0.2314 -0.9729
vn -0.1414 0.0931 -0.9856
vt 0.470074 0.433446
vt 0.664456 0.010240
vt 0.664456 0.433446
vt 0.010027 0.010541
vt 0.213572 0.433257
vt 0.010027 0.433257
vt 0.785565 0.657044
vt 0.979946 0.867014
vt 0.785565 0.867014
vt 0.204408 0.433257
vt 0.010027 0.856400
vt 0.010027 0.433257
vt 0.443595 -0.000000
vt 0.240051 0.422716
vt 0.240050 0.000000
vt 0.989973 0.443473
vt 0.989973 0.433446
vt 1.000000 0.443473
vt 0.989973 0.657044
vt 0.989973 0.647018
vt 1.000000 0.647018
vt 0.450021 0.422716
vt 0.460047 0.423244
vt 0.450021 0.433257
vt 0.240051 0.433257
vt 0.230024 0.423244
vt 0.795592 0.443473
vt 0.785565 0.443473
vt 0.795592 0.433446
vt 0.785565 0.647018
vt 0.795592 0.647018
vt 0.795592 0.657044
vt 0.219997 0.010541
vt 0.219997 -0.000000
vt 0.230024 0.010013
vt 0.000000 0.010013
vt 0.010027 -0.000000
vt 0.674482 0.433231
vt 0.204408 0.856400
vt 0.010027 0.866589
vt -0.000000 0.856563
vt -0.000000 0.433421
vt 0.470074 0.010240
vt 0.664456 0.000000
vt 0.214435 0.856563
vt 0.460047 0.010025
vt 0.622947 0.781212
vt 0.460188 0.544675
vt 0.622947 0.440846
vt 0.231839 0.771019
vt 0.214435 0.781023
vt 0.218897 0.437720
vt 0.214435 0.839464
vt 0.381379 0.993029
vt 0.214435 0.941988
vt 0.622948 0.440846
vt 0.785459 0.677382
vt 0.622948 0.781212
vt 0.902025 0.000000
vt 0.931102 0.175551
vt 0.902025 0.182858
vt 0.414696 0.771019
vt 0.425571 0.788423
vt 0.218897 0.783961
vt 0.231839 0.450661
vt 0.220965 0.433257
vt 0.427638 0.437720
vt 0.414696 0.450661
vt 0.432100 0.440657
vt 0.427638 0.783961
vt 0.674482 0.294757
vt 0.842727 0.000000
vt 0.842727 0.294757
vt 0.842727 -0.000000
vt 0.872396 0.307558
vt 0.842727 0.320358
vt 0.902025 0.320358
vt 0.872396 0.012801
vt 0.902025 -0.000000
vt 0.931102 0.182858
vt 0.902025 0.358409
vt 0.902025 0.190164
vt 0.220965 0.788423
vt 0.214435 0.440657
vt 0.432100 0.781023
vt 0.425571 0.433257
vt 0.460047 0.537275
vt 0.622807 0.433446
vt 0.785565 0.684782
vt 0.623054 0.788611
vt 0.785565 0.537275
vt 0.785459 0.544675
vt 0.460047 0.684782
vt 0.460188 0.677382
vt 0.460047 0.788611
vt 0.626991 0.942176
vt 0.460047 0.993218
vt 0.979946 0.657044
vt 0.674482 0.010025
vt 0.204408 0.866589
vt 0.470074 0.000000
vt 0.214435 0.433421
vt 0.460047 0.433231
vt 0.381379 0.788423
vt 0.931102 0.007307
vt 0.674482 0.000000
vt 0.872396 0.012801
vt 0.872396 0.307558
vt 0.931102 0.365715
vt 0.623054 0.433446
vt 0.622807 0.788611
vt 0.626991 0.839653
s 0
usemtl Material
f 4/1/1 22/2/1 18/3/1
f 24/4/2 14/5/2 16/6/2
f 9/7/3 23/8/3 11/9/3
f 15/10/4 8/11/4 2/12/4
f 3/13/5 10/14/5 6/15/5
f 1/16/6 2/17/6 3/18/6
f 4/19/7 5/20/7 6/21/7
f 7/22/8 8/23/8 9/24/8
f 10/14/9 11/25/9 12/26/9
f 13/27/10 14/28/10 15/29/10
f 16/30/11 17/31/11 18/32/11
f 19/33/12 20/34/12 21/35/12
f 22/36/13 23/37/13 24/4/13
f 22/2/14 16/38/14 18/3/14
f 18/32/15 5/20/15 4/19/15
f 6/21/16 1/16/16 3/18/16
f 20/34/17 24/4/17 23/37/17
f 11/25/18 7/22/18 9/24/18
f 17/31/19 14/28/19 13/27/19
f 21/39/20 9/40/20 8/11/20
f 2/12/21 7/41/21 3/42/21
f 12/43/22 23/44/22 22/2/22
f 15/10/23 19/45/23 21/39/23
f 2/17/24 13/27/24 15/29/24
f 4/1/25 10/46/25 12/43/25
f 13/27/26 5/20/26 17/31/26
f 42/47/27 40/48/27 44/49/27
f 26/50/28 42/51/28 46/52/28
f 38/53/29 45/54/29 39/55/29
f 51/56/30 34/57/30 47/58/30
f 27/59/31 30/60/31 28/61/31
f 25/62/32 48/63/32 43/64/32
f 28/65/33 45/66/33 52/67/33
f 27/68/34 51/69/34 49/70/34
f 32/71/26 29/72/26 30/73/26
f 28/74/35 29/75/35 26/76/35
f 25/77/36 32/78/36 27/79/36
f 25/80/37 29/81/37 31/82/37
f 41/83/26 42/51/26 43/64/26
f 44/84/26 45/66/26 46/52/26
f 47/85/26 48/63/26 49/70/26
f 50/86/26 51/69/26 52/67/26
f 44/49/38 39/87/38 45/88/38
f 47/58/39 33/89/39 48/90/39
f 51/56/40 38/91/40 37/92/40
f 42/47/41 36/93/41 35/94/41
f 48/95/42 36/96/42 41/97/42
f 4/1/1 12/43/1 22/2/1
f 24/4/2 19/33/2 14/5/2
f 9/7/3 20/98/3 23/8/3
f 15/10/4 21/39/4 8/11/4
f 3/13/5 7/22/5 10/14/5
f 22/2/14 24/99/14 16/38/14
f 18/32/15 17/31/15 5/20/15
f 6/21/16 5/20/16 1/16/16
f 20/34/17 19/33/17 24/4/17
f 11/25/18 10/14/18 7/22/18
f 17/31/19 16/30/19 14/28/19
f 21/39/20 20/100/20 9/40/20
f 2/12/21 8/11/21 7/41/21
f 12/43/22 11/101/22 23/44/22
f 15/10/23 14/102/23 19/45/23
f 2/17/24 1/16/24 13/27/24
f 4/1/25 6/103/25 10/46/25
f 13/27/26 1/16/26 5/20/26
f 42/47/27 35/94/27 40/48/27
f 46/52/43 28/65/43 26/50/43
f 26/50/44 43/64/44 42/51/44
f 42/51/26 44/84/26 46/52/26
f 38/53/29 50/104/29 45/54/29
f 51/56/30 37/92/30 34/57/30
f 27/59/31 32/105/31 30/60/31
f 43/64/45 26/50/45 25/62/45
f 25/62/46 49/70/46 48/63/46
f 48/63/26 41/83/26 43/64/26
f 52/67/47 27/68/47 28/65/47
f 28/65/48 46/52/48 45/66/48
f 45/66/26 50/86/26 52/67/26
f 49/70/49 25/62/49 27/68/49
f 27/68/50 52/67/50 51/69/50
f 51/69/26 47/85/26 49/70/26
f 32/71/26 31/106/26 29/72/26
f 28/74/35 30/107/35 29/75/35
f 25/77/36 31/108/36 32/78/36
f 25/80/37 26/109/37 29/81/37
f 44/49/38 40/48/38 39/87/38
f 47/58/39 34/57/39 33/89/39
f 51/56/40 50/110/40 38/91/40
f 42/47/41 41/111/41 36/93/41
f 48/95/42 33/112/42 36/96/42
